<?xml version="1.0" encoding="UTF-8" standalone="no"?>
<!-- Created with Inkscape (http://www.inkscape.org/) -->

<svg
   xmlns:dc="http://purl.org/dc/elements/1.1/"
   xmlns:cc="http://creativecommons.org/ns#"
   xmlns:rdf="http://www.w3.org/1999/02/22-rdf-syntax-ns#"
   xmlns:svg="http://www.w3.org/2000/svg"
   xmlns="http://www.w3.org/2000/svg"
   xmlns:sodipodi="http://sodipodi.sourceforge.net/DTD/sodipodi-0.dtd"
   xmlns:inkscape="http://www.inkscape.org/namespaces/inkscape"
   width="10.553347mm"
   height="15.137474mm"
   viewBox="0 0 37.393748 53.636719"
   id="svg4766"
   version="1.1"
   inkscape:version="0.91 r13725"
   sodipodi:docname="A.svg">
  <defs
     id="defs4768" />
  <sodipodi:namedview
     id="base"
     pagecolor="#ffffff"
     bordercolor="#666666"
     borderopacity="1.0"
     inkscape:pageopacity="0.0"
     inkscape:pageshadow="2"
     inkscape:zoom="0.35"
     inkscape:cx="837.98258"
     inkscape:cy="-298.89592"
     inkscape:document-units="px"
     inkscape:current-layer="layer1"
     showgrid="false"
     fit-margin-top="0"
     fit-margin-left="0"
     fit-margin-right="0"
     fit-margin-bottom="0"
     inkscape:window-width="1920"
     inkscape:window-height="1031"
     inkscape:window-x="0"
     inkscape:window-y="25"
     inkscape:window-maximized="1" />
  <metadata
     id="metadata4771">
    <rdf:RDF>
      <cc:Work
         rdf:about="">
        <dc:format>image/svg+xml</dc:format>
        <dc:type
           rdf:resource="http://purl.org/dc/dcmitype/StillImage" />
        <dc:title></dc:title>
      </cc:Work>
    </rdf:RDF>
  </metadata>
  <g
     inkscape:label="Layer 1"
     inkscape:groupmode="layer"
     id="layer1"
     transform="translate(1198.6969,-179.82956)">
    <path
       style="font-weight:bold;font-size:78.46398926px;font-family:'Queen of Camelot';fill:#444444"
       d="m -1190.4961,179.82961 c -5.5425,0 -8.2758,2.83366 -8.1992,8.50391 l 0,3.14258 0,19.94335 c -10e-5,0.0194 0,0.0372 0,0.0566 l 0,21.99023 0,0 11.5683,0 0.461,0 0,-20.53516 13.332,0 0,20.53516 0.4609,0 11.5684,0 0,0 0,-21.99023 c 0,-0.0202 0,-0.0385 0,-0.0586 l 0,-19.9414 0,-3.14258 c 0.077,-5.67025 -2.6567,-8.50391 -8.1992,-8.50391 z m 3.8301,11.64649 13.332,0 0,10.22851 -13.332,0 z"
       id="path3989-8-0"
       inkscape:connector-curvature="0"
       sodipodi:nodetypes="ccccsccccccccccscccccccccc" />
  </g>
</svg>
