<?xml version="1.0" encoding="UTF-8" standalone="no"?>
<!-- Created with Inkscape (http://www.inkscape.org/) -->

<svg
   xmlns:dc="http://purl.org/dc/elements/1.1/"
   xmlns:cc="http://creativecommons.org/ns#"
   xmlns:rdf="http://www.w3.org/1999/02/22-rdf-syntax-ns#"
   xmlns:svg="http://www.w3.org/2000/svg"
   xmlns="http://www.w3.org/2000/svg"
   xmlns:sodipodi="http://sodipodi.sourceforge.net/DTD/sodipodi-0.dtd"
   xmlns:inkscape="http://www.inkscape.org/namespaces/inkscape"
   width="22.120615mm"
   height="24.857672mm"
   viewBox="0 0 78.380132 88.078364"
   id="svg10027"
   version="1.1"
   inkscape:version="0.91 r13725"
   sodipodi:docname="M.svg">
  <defs
     id="defs10029" />
  <sodipodi:namedview
     id="base"
     pagecolor="#ffffff"
     bordercolor="#666666"
     borderopacity="1.0"
     inkscape:pageopacity="0.0"
     inkscape:pageshadow="2"
     inkscape:zoom="0.35"
     inkscape:cx="-498.66708"
     inkscape:cy="-27.389395"
     inkscape:document-units="px"
     inkscape:current-layer="layer1"
     showgrid="false"
     fit-margin-top="0"
     fit-margin-left="0"
     fit-margin-right="0"
     fit-margin-bottom="0"
     inkscape:window-width="1920"
     inkscape:window-height="1031"
     inkscape:window-x="0"
     inkscape:window-y="25"
     inkscape:window-maximized="1" />
  <metadata
     id="metadata10032">
    <rdf:RDF>
      <cc:Work
         rdf:about="">
        <dc:format>image/svg+xml</dc:format>
        <dc:type
           rdf:resource="http://purl.org/dc/dcmitype/StillImage" />
        <dc:title></dc:title>
      </cc:Work>
    </rdf:RDF>
  </metadata>
  <g
     inkscape:label="Layer 1"
     inkscape:groupmode="layer"
     id="layer1"
     transform="translate(-137.95279,-416.89445)">
    <g
       style="font-weight:bold;font-size:127.5px;font-family:'Queen of Camelot';fill:#000000"
       id="text3127"
       transform="translate(-124.04721,214.97281)">
      <path
         d="m 332.90942,202.65503 c -2.19977,-0.49796 -4.93903,-0.29044 -8.21777,0.62256 -2.03375,0.91317 -3.52789,2.30355 -4.48242,4.17114 l -18.80127,31.40796 -19.23706,-31.90601 c -0.99611,-1.86759 -2.51101,-3.25797 -4.54468,-4.17114 -3.27882,-0.87149 -5.99732,-1.07901 -8.15552,-0.62256 -2.19971,0.49814 -3.98438,1.57724 -5.354,3.23731 C 262.70557,207.01302 262,208.8807 262,210.99731 L 262,290 l 19.29932,0 0,-44.21729 11.45507,21.4004 c 0.83005,1.53565 2.03366,2.76002 3.61084,3.67309 1.57712,0.9131 3.25802,1.36964 5.04273,1.36963 1.86763,1e-5 3.56929,-0.45653 5.10498,-1.36963 1.5771,-0.91307 2.75996,-2.15819 3.54858,-3.73535 l 11.01929,-20.59106 0,43.47021 19.29932,0 0,-78.50464 c -8e-5,-2.11662 -0.70565,-4.00504 -2.1167,-5.66528 -1.41121,-1.66007 -3.19588,-2.71842 -5.35401,-3.17505"
         style="font-weight:bold;font-size:127.5px;font-family:'Queen of Camelot';fill:#000000"
         id="path3992"
         inkscape:connector-curvature="0"
         sodipodi:nodetypes="ccccccccscccccccccccccc" />
    </g>
  </g>
</svg>
