<?xml version="1.0" encoding="UTF-8" standalone="no"?>
<!-- Created with Inkscape (http://www.inkscape.org/) -->

<svg
   xmlns:dc="http://purl.org/dc/elements/1.1/"
   xmlns:cc="http://creativecommons.org/ns#"
   xmlns:rdf="http://www.w3.org/1999/02/22-rdf-syntax-ns#"
   xmlns:svg="http://www.w3.org/2000/svg"
   xmlns="http://www.w3.org/2000/svg"
   xmlns:sodipodi="http://sodipodi.sourceforge.net/DTD/sodipodi-0.dtd"
   xmlns:inkscape="http://www.inkscape.org/namespaces/inkscape"
   width="11.796578mm"
   height="15.483685mm"
   viewBox="0 0 41.7989 54.863452"
   id="svg5348"
   version="1.1"
   inkscape:version="0.91 r13725"
   sodipodi:docname="N.svg">
  <defs
     id="defs5350" />
  <sodipodi:namedview
     id="base"
     pagecolor="#ffffff"
     bordercolor="#666666"
     borderopacity="1.0"
     inkscape:pageopacity="0.0"
     inkscape:pageshadow="2"
     inkscape:zoom="0.35"
     inkscape:cx="723.04231"
     inkscape:cy="-475.42542"
     inkscape:document-units="px"
     inkscape:current-layer="layer1"
     showgrid="false"
     fit-margin-top="0"
     fit-margin-left="0"
     fit-margin-right="0"
     fit-margin-bottom="0"
     inkscape:window-width="1920"
     inkscape:window-height="1031"
     inkscape:window-x="0"
     inkscape:window-y="25"
     inkscape:window-maximized="1" />
  <metadata
     id="metadata5353">
    <rdf:RDF>
      <cc:Work
         rdf:about="">
        <dc:format>image/svg+xml</dc:format>
        <dc:type
           rdf:resource="http://purl.org/dc/dcmitype/StillImage" />
        <dc:title></dc:title>
      </cc:Work>
    </rdf:RDF>
  </metadata>
  <g
     inkscape:label="Layer 1"
     inkscape:groupmode="layer"
     id="layer1"
     transform="translate(1083.7566,-2.0733354)">
    <path
       inkscape:connector-curvature="0"
       id="path3977"
       style="font-weight:bold;font-size:78.46398926px;font-family:'Queen of Camelot';fill:#444444"
       d="m -1053.9878,2.9161729 0,28.0830601 -18.8881,-26.4739401 c -0.7918,-1.04715 -1.8007,-1.76232 -3.0266,-2.1455 -1.2516,-0.40861 -2.4904,-0.40861 -3.7164,0 -1.226,0.40872 -2.2221,1.13666 -2.9883,2.18381 -0.7663,1.07281 -1.1494,2.24772 -1.1494,3.52475 l 0,48.4270001 12.0301,0 0,-28.54281 18.9264,26.51225 c 0.7662,1.0472 1.7623,1.76237 2.9884,2.1455 1.2515,0.40866 2.4902,0.40866 3.7163,0 1.2515,-0.40867 2.2476,-1.13661 2.9883,-2.18382 0.7663,-1.0472 1.1494,-2.22212 1.1494,-3.52475 l 0,-48.0055501 -12.0301,0" />
  </g>
</svg>
