<?xml version="1.0" encoding="UTF-8" standalone="no"?>
<!-- Created with Inkscape (http://www.inkscape.org/) -->

<svg
   xmlns:dc="http://purl.org/dc/elements/1.1/"
   xmlns:cc="http://creativecommons.org/ns#"
   xmlns:rdf="http://www.w3.org/1999/02/22-rdf-syntax-ns#"
   xmlns:svg="http://www.w3.org/2000/svg"
   xmlns="http://www.w3.org/2000/svg"
   xmlns:sodipodi="http://sodipodi.sourceforge.net/DTD/sodipodi-0.dtd"
   xmlns:inkscape="http://www.inkscape.org/namespaces/inkscape"
   width="12.093662mm"
   height="15.116528mm"
   viewBox="0 0 42.851559 53.562499"
   id="svg7094"
   version="1.1"
   inkscape:version="0.91 r13725"
   sodipodi:docname="R.svg">
  <defs
     id="defs7096" />
  <sodipodi:namedview
     id="base"
     pagecolor="#ffffff"
     bordercolor="#666666"
     borderopacity="1.0"
     inkscape:pageopacity="0.0"
     inkscape:pageshadow="2"
     inkscape:zoom="0.35"
     inkscape:cx="-619.28851"
     inkscape:cy="-284.64732"
     inkscape:document-units="px"
     inkscape:current-layer="layer1"
     showgrid="false"
     fit-margin-top="0"
     fit-margin-left="0"
     fit-margin-right="0"
     fit-margin-bottom="0"
     inkscape:window-width="1920"
     inkscape:window-height="1031"
     inkscape:window-x="0"
     inkscape:window-y="25"
     inkscape:window-maximized="1" />
  <metadata
     id="metadata7099">
    <rdf:RDF>
      <cc:Work
         rdf:about="">
        <dc:format>image/svg+xml</dc:format>
        <dc:type
           rdf:resource="http://purl.org/dc/dcmitype/StillImage" />
        <dc:title></dc:title>
      </cc:Work>
    </rdf:RDF>
  </metadata>
  <g
     inkscape:label="Layer 1"
     inkscape:groupmode="layer"
     id="layer1"
     transform="translate(-258.57422,-194.15238)">
    <path
       style="font-weight:bold;font-size:78.46398926px;font-family:'Queen of Camelot';fill:#444444"
       d="m 258.57423,194.15238 0,53.5625 11.76172,0 0.0371,-18.84961 6.52148,0 9.82032,18.77148 14.71093,0.0762 -11.45117,-19.78906 c 5.49598,-1.96398 8.25193,-7.02024 8.25195,-15.1875 l 0,-2.30078 c -3e-5,-10.80407 -4.764,-16.19347 -14.29101,-16.16797 l -25.36133,-0.11523 z m 11.83789,11.5332 8.96484,0.0371 c 4.52085,4e-5 6.78122,1.57131 6.78125,4.71289 l 0,2.30078 c -3e-5,3.21829 -2.26042,4.83947 -6.78125,4.82617 l -8.96484,0 0,-11.87695 z"
       id="path3981-2"
       inkscape:connector-curvature="0" />
  </g>
</svg>
